<svg xmlns="http://www.w3.org/2000/svg" viewBox="0 0 800 400" fill="none">
  
  <g stroke="currentColor" stroke-width="1.2" stroke-linejoin="miter" fill="none">
    
    <g transform="translate(40 60)">
      <path d="M0 340 V120 L24 100 L48 120 V340 Z"></path>
      <path d="M24 100 V340"></path>
      
      <line x1="0" y1="180" x2="48" y2="180" opacity="0.5"></line>
      <line x1="0" y1="240" x2="48" y2="240" opacity="0.5"></line>
      <line x1="0" y1="290" x2="48" y2="290" opacity="0.5"></line>
    </g>
    <g transform="translate(96 30)">
      <path d="M0 370 V100 L26 78 L52 100 V370 Z"></path>
      <path d="M26 78 V370"></path>
      <line x1="0" y1="160" x2="52" y2="160" opacity="0.5"></line>
      <line x1="0" y1="230" x2="52" y2="230" opacity="0.5"></line>
      <line x1="0" y1="310" x2="52" y2="310" opacity="0.5"></line>
    </g>
    <g transform="translate(156 80)">
      <path d="M0 320 V90 L22 70 L44 90 V320 Z"></path>
      <path d="M22 70 V320"></path>
      <line x1="0" y1="150" x2="44" y2="150" opacity="0.5"></line>
      <line x1="0" y1="220" x2="44" y2="220" opacity="0.5"></line>
    </g>
    <g transform="translate(208 50)">
      <path d="M0 350 V80 L25 60 L50 80 V350 Z"></path>
      <path d="M25 60 V350"></path>
      <line x1="0" y1="140" x2="50" y2="140" opacity="0.5"></line>
      <line x1="0" y1="220" x2="50" y2="220" opacity="0.5"></line>
      <line x1="0" y1="290" x2="50" y2="290" opacity="0.5"></line>
    </g>
    <g transform="translate(266 100)">
      <path d="M0 300 V60 L23 42 L46 60 V300 Z"></path>
      <path d="M23 42 V300"></path>
      <line x1="0" y1="130" x2="46" y2="130" opacity="0.5"></line>
      <line x1="0" y1="200" x2="46" y2="200" opacity="0.5"></line>
    </g>
    <g transform="translate(320 40)">
      <path d="M0 360 V90 L28 70 L56 90 V360 Z"></path>
      <path d="M28 70 V360"></path>
      <line x1="0" y1="160" x2="56" y2="160" opacity="0.5"></line>
      <line x1="0" y1="240" x2="56" y2="240" opacity="0.5"></line>
      <line x1="0" y1="310" x2="56" y2="310" opacity="0.5"></line>
    </g>
    <g transform="translate(384 70)">
      <path d="M0 330 V70 L24 50 L48 70 V330 Z"></path>
      <path d="M24 50 V330"></path>
      <line x1="0" y1="150" x2="48" y2="150" opacity="0.5"></line>
      <line x1="0" y1="230" x2="48" y2="230" opacity="0.5"></line>
    </g>
    <g transform="translate(440 110)">
      <path d="M0 290 V50 L20 32 L40 50 V290 Z"></path>
      <path d="M20 32 V290"></path>
      <line x1="0" y1="120" x2="40" y2="120" opacity="0.5"></line>
      <line x1="0" y1="190" x2="40" y2="190" opacity="0.5"></line>
    </g>
    <g transform="translate(490 60)">
      <path d="M0 340 V80 L26 60 L52 80 V340 Z"></path>
      <path d="M26 60 V340"></path>
      <line x1="0" y1="150" x2="52" y2="150" opacity="0.5"></line>
      <line x1="0" y1="230" x2="52" y2="230" opacity="0.5"></line>
    </g>
    <g transform="translate(548 90)">
      <path d="M0 310 V60 L22 42 L44 60 V310 Z"></path>
      <path d="M22 42 V310"></path>
      <line x1="0" y1="140" x2="44" y2="140" opacity="0.5"></line>
      <line x1="0" y1="210" x2="44" y2="210" opacity="0.5"></line>
    </g>
    <g transform="translate(600 30)">
      <path d="M0 370 V90 L25 70 L50 90 V370 Z"></path>
      <path d="M25 70 V370"></path>
      <line x1="0" y1="160" x2="50" y2="160" opacity="0.5"></line>
      <line x1="0" y1="240" x2="50" y2="240" opacity="0.5"></line>
      <line x1="0" y1="310" x2="50" y2="310" opacity="0.5"></line>
    </g>
    <g transform="translate(660 70)">
      <path d="M0 330 V70 L24 50 L48 70 V330 Z"></path>
      <path d="M24 50 V330"></path>
      <line x1="0" y1="150" x2="48" y2="150" opacity="0.5"></line>
      <line x1="0" y1="220" x2="48" y2="220" opacity="0.5"></line>
    </g>
    <g transform="translate(720 100)">
      <path d="M0 300 V50 L20 32 L40 50 V300 Z"></path>
      <path d="M20 32 V300"></path>
      <line x1="0" y1="120" x2="40" y2="120" opacity="0.5"></line>
      <line x1="0" y1="190" x2="40" y2="190" opacity="0.5"></line>
    </g>
  </g>
</svg>