<svg xmlns="http://www.w3.org/2000/svg" viewBox="0 0 64 64" fill="none">
  
  <defs>
    <clipPath id="mark-frame">
      <rect x="2" y="2" width="60" height="60" rx="2"></rect>
    </clipPath>
    <linearGradient id="mark-lava" x1="0" y1="0" x2="1" y2="1">
      <stop offset="0%" stop-color="#ff8a3d"></stop>
      <stop offset="50%" stop-color="#ff4d1f"></stop>
      <stop offset="100%" stop-color="#c8270a"></stop>
    </linearGradient>
  </defs>
  <g clip-path="url(#mark-frame)">
    
    <g stroke="currentColor" stroke-width="1.5" stroke-linejoin="miter" fill="none" opacity="0.95">
      <path d="M16 -4 L26 4 L26 18 L16 24 L6 18 L6 4 Z"></path>
      <path d="M32 -4 L42 4 L42 18 L32 24 L22 18 L22 4 Z"></path>
      <path d="M48 -4 L58 4 L58 18 L48 24 L38 18 L38 4 Z"></path>
      <path d="M24 18 L34 26 L34 40 L24 46 L14 40 L14 26 Z"></path>
      <path d="M40 18 L50 26 L50 40 L40 46 L30 40 L30 26 Z"></path>
      <path d="M16 40 L26 48 L26 62 L16 68 L6 62 L6 48 Z"></path>
      <path d="M32 40 L42 48 L42 62 L32 68 L22 62 L22 48 Z"></path>
      <path d="M48 40 L58 48 L58 62 L48 68 L38 62 L38 48 Z"></path>
    </g>
    
    <path d="M0 30 L10 26 L18 32 L28 28 L36 34 L46 30 L54 36 L64 32" stroke="url(#mark-lava)" stroke-width="2.5" fill="none" stroke-linejoin="miter"></path>
    
    <circle cx="18" cy="32" r="1.6" fill="#ff6a3d"></circle>
    <circle cx="36" cy="34" r="1.6" fill="#ff6a3d"></circle>
    <circle cx="54" cy="36" r="1.6" fill="#ff6a3d"></circle>
  </g>
  <rect x="2" y="2" width="60" height="60" rx="2" fill="none" stroke="currentColor" stroke-width="1.5"></rect>
</svg>